<svg width="50" height="57" viewBox="0 0 50 57" fill="none" xmlns="http://www.w3.org/2000/svg">
<path fill-rule="evenodd" clip-rule="evenodd" d="M33.8534 4.8067C34.0954 2.64511 32.5629 0.693216 30.4013 0.451246C28.2397 0.193145 26.2878 1.74175 26.0458 3.90335C25.7555 6.37144 26.1588 9.32348 26.675 12.3562C28.1106 12.7917 29.4979 13.4208 30.7884 14.1629C32.1757 10.8882 33.5308 7.64582 33.8534 4.8067ZM49.033 14.2919C48.178 12.2916 45.8551 11.3883 43.8548 12.2432C41.2254 13.3886 38.4992 15.6308 35.7569 17.9376C36.7893 18.9539 37.7572 20.0992 38.5799 21.3413C41.6932 20.9542 44.6775 20.4864 46.9843 19.4862C48.9846 18.599 49.9041 16.2761 49.033 14.2919ZM42.403 3.74204C40.6608 2.45153 38.1927 2.80642 36.9022 4.5486C34.9342 7.19414 33.6114 11.1463 32.1757 15.0017C32.6597 15.3243 33.1114 15.647 33.5469 15.9857C33.8695 16.2438 34.2083 16.518 34.547 16.7923C37.8378 14.3081 41.2577 11.8884 43.2257 9.24282C44.5162 7.50064 44.1452 5.03254 42.403 3.74204Z" fill="white"/>
<path d="M34.9181 35.3272C33.7082 36.6338 32.4177 37.8437 31.0465 39.0212C29.1269 40.6828 27.175 42.2959 25.1909 43.8445C23.0615 42.5379 21.5291 41.8765 21.271 42.2153C21.0451 42.5217 21.9323 43.6509 23.5293 45.1189C18.1737 49.1033 12.5116 52.62 6.43014 55.5075C5.47839 55.9591 4.47825 56.2818 3.49424 56.6367C3.23614 56.7334 2.9619 56.7334 2.84898 56.7496C1.30038 56.927 0.832568 56.5076 0.897093 55.088C1.09067 50.6681 2.46183 46.5223 3.88139 42.3927C4.26854 41.2635 4.67182 40.1343 5.09124 39.0051C7.2367 40.3118 8.76918 40.9893 9.02728 40.6505C9.30151 40.2795 8.01101 38.7954 5.84941 36.9403C7.39802 32.9397 9.12407 29.0037 11.1566 25.229C15.2217 28.2455 18.8351 30.2297 19.2384 29.6812C19.6417 29.1327 16.6574 26.213 12.5439 23.1642L12.3665 23.0351C13.0762 21.8253 13.8183 20.6154 14.6087 19.4378C15.5927 17.9537 16.8026 16.5987 17.9963 15.2759C19.5933 13.5176 21.6581 12.9208 23.9649 13.437C31.353 15.0824 36.4828 19.3249 38.9025 26.6001C39.3864 28.0842 38.9509 29.536 38.1927 30.8749C37.6765 31.7783 37.1119 32.6332 36.4828 33.4398C32.579 30.5846 29.1914 28.7456 28.8043 29.2618C28.4333 29.778 31.1272 32.4397 34.9181 35.3272Z" fill="white"/>
</svg>
