<svg width="263" height="25" viewBox="0 0 263 25" fill="none" xmlns="http://www.w3.org/2000/svg">
<path d="M10.5493 4.04638H12.6875V0.220055C12.3186 0.167915 11.0499 0.0505981 9.57243 0.0505981C6.48957 0.0505981 4.37774 2.04297 4.37774 5.70485V9.07494H0.975769V13.3525H4.37774V24.1155H8.54871V13.3535H11.8131L12.3313 9.07595H8.54774V6.129C8.54871 4.89266 8.87271 4.04638 10.5493 4.04638Z" fill="white"/>
<path d="M62.5325 19.4839C60.6365 19.4839 59.0645 18.8599 57.8165 17.6119C56.5685 16.3399 55.9445 14.7859 55.9445 12.9499C55.9445 11.1019 56.5685 9.55388 57.8165 8.30588C59.0525 7.04588 60.6245 6.41588 62.5325 6.41588C63.6725 6.41588 64.7225 6.68588 65.6825 7.22588C66.6545 7.76588 67.4105 8.49788 67.9505 9.42188L66.1505 10.4659C65.8145 9.84188 65.3225 9.34988 64.6745 8.98988C64.0385 8.61788 63.3245 8.43188 62.5325 8.43188C61.2005 8.43188 60.1085 8.85788 59.2565 9.70988C58.4285 10.5499 58.0145 11.6299 58.0145 12.9499C58.0145 14.2699 58.4285 15.3499 59.2565 16.1899C60.1085 17.0419 61.2005 17.4679 62.5325 17.4679C63.3245 17.4679 64.0445 17.2879 64.6925 16.9279C65.3405 16.5559 65.8265 16.0579 66.1505 15.4339L67.9505 16.4599C67.4345 17.3719 66.6845 18.1099 65.7005 18.6739C64.7525 19.2139 63.6965 19.4839 62.5325 19.4839ZM77.1406 18.1159C76.2286 19.0279 75.1066 19.4839 73.7746 19.4839C72.4426 19.4839 71.3206 19.0279 70.4086 18.1159C69.4846 17.1919 69.0226 16.0699 69.0226 14.7499C69.0226 13.4299 69.4846 12.3079 70.4086 11.3839C71.3206 10.4719 72.4426 10.0159 73.7746 10.0159C75.1066 10.0159 76.2286 10.4719 77.1406 11.3839C78.0646 12.3079 78.5266 13.4299 78.5266 14.7499C78.5266 16.0699 78.0646 17.1919 77.1406 18.1159ZM70.9666 14.7499C70.9666 15.5659 71.2366 16.2439 71.7766 16.7839C72.3166 17.3239 72.9826 17.5939 73.7746 17.5939C74.5666 17.5939 75.2326 17.3239 75.7726 16.7839C76.3126 16.2439 76.5826 15.5659 76.5826 14.7499C76.5826 13.9339 76.3126 13.2559 75.7726 12.7159C75.2326 12.1759 74.5666 11.9059 73.7746 11.9059C72.9826 11.9059 72.3166 12.1759 71.7766 12.7159C71.2366 13.2559 70.9666 13.9339 70.9666 14.7499ZM85.0184 10.0159C86.0624 10.0159 86.8964 10.3519 87.5204 11.0239C88.1564 11.6839 88.4744 12.5839 88.4744 13.7239V19.2499H86.5304V13.9219C86.5304 13.2499 86.3504 12.7339 85.9904 12.3739C85.6304 12.0139 85.1384 11.8339 84.5144 11.8339C83.8064 11.8339 83.2484 12.0559 82.8404 12.4999C82.4324 12.9319 82.2284 13.5739 82.2284 14.4259V19.2499H80.2844V10.2499H82.2284V11.4019C82.8284 10.4779 83.7584 10.0159 85.0184 10.0159ZM95.5896 10.2499V12.1219H93.3576V16.4419C93.3576 16.8139 93.4416 17.0839 93.6096 17.2519C93.7776 17.4079 94.0236 17.4979 94.3476 17.5219C94.6836 17.5339 95.0976 17.5279 95.5896 17.5039V19.2499C94.1016 19.4299 93.0336 19.3039 92.3856 18.8719C91.7376 18.4279 91.4136 17.6179 91.4136 16.4419V12.1219H89.7576V10.2499H91.4136V8.30588L93.3576 7.72988V10.2499H95.5896ZM99.1888 8.53988C98.9488 8.77988 98.6608 8.89988 98.3248 8.89988C97.9888 8.89988 97.6948 8.77988 97.4428 8.53988C97.2028 8.28788 97.0828 7.99388 97.0828 7.65788C97.0828 7.32188 97.2028 7.03388 97.4428 6.79388C97.6828 6.54188 97.9768 6.41588 98.3248 6.41588C98.6728 6.41588 98.9668 6.54188 99.2068 6.79388C99.4468 7.03388 99.5668 7.32188 99.5668 7.65788C99.5668 7.99388 99.4408 8.28788 99.1888 8.53988ZM99.2968 19.2499H97.3528V10.2499H99.2968V19.2499ZM106.288 10.0159C107.332 10.0159 108.166 10.3519 108.79 11.0239C109.426 11.6839 109.744 12.5839 109.744 13.7239V19.2499H107.8V13.9219C107.8 13.2499 107.62 12.7339 107.26 12.3739C106.9 12.0139 106.408 11.8339 105.784 11.8339C105.076 11.8339 104.518 12.0559 104.11 12.4999C103.702 12.9319 103.498 13.5739 103.498 14.4259V19.2499H101.554V10.2499H103.498V11.4019C104.098 10.4779 105.028 10.0159 106.288 10.0159ZM117.903 15.0739V10.2499H119.847V19.2499H117.903V18.0979C117.303 19.0219 116.373 19.4839 115.113 19.4839C114.069 19.4839 113.229 19.1539 112.593 18.4939C111.969 17.8219 111.657 16.9159 111.657 15.7759V10.2499H113.601V15.5779C113.601 16.2499 113.781 16.7659 114.141 17.1259C114.501 17.4859 114.993 17.6659 115.617 17.6659C116.325 17.6659 116.883 17.4499 117.291 17.0179C117.699 16.5739 117.903 15.9259 117.903 15.0739ZM130.814 15.5779H123.65C123.794 16.2499 124.118 16.7719 124.622 17.1439C125.138 17.5159 125.774 17.7019 126.53 17.7019C127.55 17.7019 128.324 17.3299 128.852 16.5859L130.454 17.5219C129.578 18.8299 128.264 19.4839 126.512 19.4839C125.06 19.4839 123.878 19.0399 122.966 18.1519C122.066 17.2519 121.616 16.1179 121.616 14.7499C121.616 13.4179 122.06 12.2959 122.948 11.3839C123.824 10.4719 124.964 10.0159 126.368 10.0159C127.676 10.0159 128.756 10.4779 129.608 11.4019C130.46 12.3259 130.886 13.4479 130.886 14.7679C130.886 15.0079 130.862 15.2779 130.814 15.5779ZM123.632 13.9939H128.924C128.792 13.2859 128.492 12.7399 128.024 12.3559C127.568 11.9719 127.01 11.7799 126.35 11.7799C125.63 11.7799 125.03 11.9779 124.55 12.3739C124.07 12.7699 123.764 13.3099 123.632 13.9939ZM145.701 16.4599L147.465 10.2499H149.517L146.691 19.2499H144.783L142.911 13.1839L141.021 19.2499H139.113L136.287 10.2499H138.339L140.085 16.4599L141.975 10.2499H143.829L145.701 16.4599ZM152.784 8.53988C152.544 8.77988 152.256 8.89988 151.92 8.89988C151.584 8.89988 151.29 8.77988 151.038 8.53988C150.798 8.28788 150.678 7.99388 150.678 7.65788C150.678 7.32188 150.798 7.03388 151.038 6.79388C151.278 6.54188 151.572 6.41588 151.92 6.41588C152.268 6.41588 152.562 6.54188 152.802 6.79388C153.042 7.03388 153.162 7.32188 153.162 7.65788C153.162 7.99388 153.036 8.28788 152.784 8.53988ZM152.892 19.2499H150.948V10.2499H152.892V19.2499ZM160.172 10.2499V12.1219H157.94V16.4419C157.94 16.8139 158.024 17.0839 158.192 17.2519C158.36 17.4079 158.606 17.4979 158.93 17.5219C159.266 17.5339 159.68 17.5279 160.172 17.5039V19.2499C158.684 19.4299 157.616 19.3039 156.968 18.8719C156.32 18.4279 155.996 17.6179 155.996 16.4419V12.1219H154.34V10.2499H155.996V8.30588L157.94 7.72988V10.2499H160.172ZM166.669 10.0159C167.713 10.0159 168.547 10.3519 169.171 11.0239C169.807 11.6839 170.125 12.5839 170.125 13.7239V19.2499H168.181V13.9219C168.181 13.2499 168.001 12.7339 167.641 12.3739C167.281 12.0139 166.789 11.8339 166.165 11.8339C165.457 11.8339 164.899 12.0559 164.491 12.4999C164.083 12.9319 163.879 13.5739 163.879 14.4259V19.2499H161.935V6.64988H163.879V11.4019C164.479 10.4779 165.409 10.0159 166.669 10.0159ZM184.224 6.64988V8.62988H178.914V12.1579H184.044V14.1379H178.914V19.2499H176.844V6.64988H184.224ZM193.162 11.5279V10.2499H195.106V19.2499H193.162V17.9539C192.43 18.9739 191.38 19.4839 190.012 19.4839C188.776 19.4839 187.72 19.0279 186.844 18.1159C185.968 17.2039 185.53 16.0819 185.53 14.7499C185.53 13.4179 185.968 12.2959 186.844 11.3839C187.72 10.4719 188.776 10.0159 190.012 10.0159C191.38 10.0159 192.43 10.5199 193.162 11.5279ZM188.284 16.8199C188.824 17.3599 189.502 17.6299 190.318 17.6299C191.134 17.6299 191.812 17.3599 192.352 16.8199C192.892 16.2679 193.162 15.5779 193.162 14.7499C193.162 13.9219 192.892 13.2379 192.352 12.6979C191.812 12.1459 191.134 11.8699 190.318 11.8699C189.502 11.8699 188.824 12.1459 188.284 12.6979C187.744 13.2379 187.474 13.9219 187.474 14.7499C187.474 15.5659 187.744 16.2559 188.284 16.8199ZM201.62 19.4839C200.264 19.4839 199.13 19.0279 198.218 18.1159C197.318 17.1919 196.868 16.0699 196.868 14.7499C196.868 13.4059 197.318 12.2839 198.218 11.3839C199.13 10.4719 200.264 10.0159 201.62 10.0159C202.496 10.0159 203.294 10.2259 204.014 10.6459C204.734 11.0659 205.274 11.6299 205.634 12.3379L203.96 13.3099C203.756 12.8779 203.444 12.5419 203.024 12.3019C202.616 12.0499 202.142 11.9239 201.602 11.9239C200.81 11.9239 200.144 12.1939 199.604 12.7339C199.076 13.2859 198.812 13.9579 198.812 14.7499C198.812 15.5419 199.076 16.2139 199.604 16.7659C200.144 17.3059 200.81 17.5759 201.602 17.5759C202.13 17.5759 202.604 17.4559 203.024 17.2159C203.456 16.9639 203.78 16.6219 203.996 16.1899L205.67 17.1439C205.286 17.8639 204.728 18.4339 203.996 18.8539C203.276 19.2739 202.484 19.4839 201.62 19.4839ZM215.629 15.5779H208.465C208.609 16.2499 208.933 16.7719 209.437 17.1439C209.953 17.5159 210.589 17.7019 211.345 17.7019C212.365 17.7019 213.139 17.3299 213.667 16.5859L215.269 17.5219C214.393 18.8299 213.079 19.4839 211.327 19.4839C209.875 19.4839 208.693 19.0399 207.781 18.1519C206.881 17.2519 206.431 16.1179 206.431 14.7499C206.431 13.4179 206.875 12.2959 207.763 11.3839C208.639 10.4719 209.779 10.0159 211.183 10.0159C212.491 10.0159 213.571 10.4779 214.423 11.4019C215.275 12.3259 215.701 13.4479 215.701 14.7679C215.701 15.0079 215.677 15.2779 215.629 15.5779ZM208.447 13.9939H213.739C213.607 13.2859 213.307 12.7399 212.839 12.3559C212.383 11.9719 211.825 11.7799 211.165 11.7799C210.445 11.7799 209.845 11.9779 209.365 12.3739C208.885 12.7699 208.579 13.3099 208.447 13.9939ZM222.505 10.0159C223.741 10.0159 224.797 10.4719 225.673 11.3839C226.549 12.2959 226.987 13.4179 226.987 14.7499C226.987 16.0819 226.549 17.2039 225.673 18.1159C224.797 19.0279 223.741 19.4839 222.505 19.4839C221.137 19.4839 220.087 18.9739 219.355 17.9539V19.2499H217.411V6.64988H219.355V11.5279C220.099 10.5199 221.149 10.0159 222.505 10.0159ZM220.165 16.8199C220.705 17.3599 221.383 17.6299 222.199 17.6299C223.015 17.6299 223.693 17.3599 224.233 16.8199C224.773 16.2679 225.043 15.5779 225.043 14.7499C225.043 13.9219 224.773 13.2379 224.233 12.6979C223.693 12.1459 223.015 11.8699 222.199 11.8699C221.383 11.8699 220.705 12.1459 220.165 12.6979C219.625 13.2379 219.355 13.9219 219.355 14.7499C219.355 15.5659 219.625 16.2559 220.165 16.8199ZM236.363 18.1159C235.451 19.0279 234.329 19.4839 232.997 19.4839C231.665 19.4839 230.543 19.0279 229.631 18.1159C228.707 17.1919 228.245 16.0699 228.245 14.7499C228.245 13.4299 228.707 12.3079 229.631 11.3839C230.543 10.4719 231.665 10.0159 232.997 10.0159C234.329 10.0159 235.451 10.4719 236.363 11.3839C237.287 12.3079 237.749 13.4299 237.749 14.7499C237.749 16.0699 237.287 17.1919 236.363 18.1159ZM230.189 14.7499C230.189 15.5659 230.459 16.2439 230.999 16.7839C231.539 17.3239 232.205 17.5939 232.997 17.5939C233.789 17.5939 234.455 17.3239 234.995 16.7839C235.535 16.2439 235.805 15.5659 235.805 14.7499C235.805 13.9339 235.535 13.2559 234.995 12.7159C234.455 12.1759 233.789 11.9059 232.997 11.9059C232.205 11.9059 231.539 12.1759 230.999 12.7159C230.459 13.2559 230.189 13.9339 230.189 14.7499ZM247.121 18.1159C246.209 19.0279 245.087 19.4839 243.755 19.4839C242.423 19.4839 241.301 19.0279 240.389 18.1159C239.465 17.1919 239.003 16.0699 239.003 14.7499C239.003 13.4299 239.465 12.3079 240.389 11.3839C241.301 10.4719 242.423 10.0159 243.755 10.0159C245.087 10.0159 246.209 10.4719 247.121 11.3839C248.045 12.3079 248.507 13.4299 248.507 14.7499C248.507 16.0699 248.045 17.1919 247.121 18.1159ZM240.947 14.7499C240.947 15.5659 241.217 16.2439 241.757 16.7839C242.297 17.3239 242.963 17.5939 243.755 17.5939C244.547 17.5939 245.213 17.3239 245.753 16.7839C246.293 16.2439 246.563 15.5659 246.563 14.7499C246.563 13.9339 246.293 13.2559 245.753 12.7159C245.213 12.1759 244.547 11.9059 243.755 11.9059C242.963 11.9059 242.297 12.1759 241.757 12.7159C241.217 13.2559 240.947 13.9339 240.947 14.7499ZM254.117 14.6599L258.221 19.2499H255.899L252.209 15.0919V19.2499H250.265V6.64988H252.209V14.2279L255.701 10.2499H258.077L254.117 14.6599Z" fill="#FCFCFC"/>
</svg>
