<svg width="248" height="25" viewBox="0 0 248 25" fill="none" xmlns="http://www.w3.org/2000/svg">
<path d="M71.3705 19.4839C69.4745 19.4839 67.9025 18.8599 66.6545 17.6119C65.4065 16.3399 64.7825 14.7859 64.7825 12.9499C64.7825 11.1019 65.4065 9.55388 66.6545 8.30588C67.8905 7.04588 69.4625 6.41588 71.3705 6.41588C72.5105 6.41588 73.5605 6.68588 74.5205 7.22588C75.4925 7.76588 76.2485 8.49788 76.7885 9.42188L74.9885 10.4659C74.6525 9.84188 74.1605 9.34988 73.5125 8.98988C72.8765 8.61788 72.1625 8.43188 71.3705 8.43188C70.0385 8.43188 68.9465 8.85788 68.0945 9.70988C67.2665 10.5499 66.8525 11.6299 66.8525 12.9499C66.8525 14.2699 67.2665 15.3499 68.0945 16.1899C68.9465 17.0419 70.0385 17.4679 71.3705 17.4679C72.1625 17.4679 72.8825 17.2879 73.5305 16.9279C74.1785 16.5559 74.6645 16.0579 74.9885 15.4339L76.7885 16.4599C76.2725 17.3719 75.5225 18.1099 74.5385 18.6739C73.5905 19.2139 72.5345 19.4839 71.3705 19.4839ZM85.9786 18.1159C85.0666 19.0279 83.9446 19.4839 82.6126 19.4839C81.2806 19.4839 80.1586 19.0279 79.2466 18.1159C78.3226 17.1919 77.8606 16.0699 77.8606 14.7499C77.8606 13.4299 78.3226 12.3079 79.2466 11.3839C80.1586 10.4719 81.2806 10.0159 82.6126 10.0159C83.9446 10.0159 85.0666 10.4719 85.9786 11.3839C86.9026 12.3079 87.3646 13.4299 87.3646 14.7499C87.3646 16.0699 86.9026 17.1919 85.9786 18.1159ZM79.8046 14.7499C79.8046 15.5659 80.0746 16.2439 80.6146 16.7839C81.1546 17.3239 81.8206 17.5939 82.6126 17.5939C83.4046 17.5939 84.0706 17.3239 84.6106 16.7839C85.1506 16.2439 85.4206 15.5659 85.4206 14.7499C85.4206 13.9339 85.1506 13.2559 84.6106 12.7159C84.0706 12.1759 83.4046 11.9059 82.6126 11.9059C81.8206 11.9059 81.1546 12.1759 80.6146 12.7159C80.0746 13.2559 79.8046 13.9339 79.8046 14.7499ZM93.8564 10.0159C94.9004 10.0159 95.7344 10.3519 96.3584 11.0239C96.9944 11.6839 97.3124 12.5839 97.3124 13.7239V19.2499H95.3684V13.9219C95.3684 13.2499 95.1884 12.7339 94.8284 12.3739C94.4684 12.0139 93.9764 11.8339 93.3524 11.8339C92.6444 11.8339 92.0864 12.0559 91.6784 12.4999C91.2704 12.9319 91.0664 13.5739 91.0664 14.4259V19.2499H89.1224V10.2499H91.0664V11.4019C91.6664 10.4779 92.5964 10.0159 93.8564 10.0159ZM104.428 10.2499V12.1219H102.196V16.4419C102.196 16.8139 102.28 17.0839 102.448 17.2519C102.616 17.4079 102.862 17.4979 103.186 17.5219C103.522 17.5339 103.936 17.5279 104.428 17.5039V19.2499C102.94 19.4299 101.872 19.3039 101.224 18.8719C100.576 18.4279 100.252 17.6179 100.252 16.4419V12.1219H98.5956V10.2499H100.252V8.30588L102.196 7.72988V10.2499H104.428ZM108.027 8.53988C107.787 8.77988 107.499 8.89988 107.163 8.89988C106.827 8.89988 106.533 8.77988 106.281 8.53988C106.041 8.28788 105.921 7.99388 105.921 7.65788C105.921 7.32188 106.041 7.03388 106.281 6.79388C106.521 6.54188 106.815 6.41588 107.163 6.41588C107.511 6.41588 107.805 6.54188 108.045 6.79388C108.285 7.03388 108.405 7.32188 108.405 7.65788C108.405 7.99388 108.279 8.28788 108.027 8.53988ZM108.135 19.2499H106.191V10.2499H108.135V19.2499ZM115.126 10.0159C116.17 10.0159 117.004 10.3519 117.628 11.0239C118.264 11.6839 118.582 12.5839 118.582 13.7239V19.2499H116.638V13.9219C116.638 13.2499 116.458 12.7339 116.098 12.3739C115.738 12.0139 115.246 11.8339 114.622 11.8339C113.914 11.8339 113.356 12.0559 112.948 12.4999C112.54 12.9319 112.336 13.5739 112.336 14.4259V19.2499H110.392V10.2499H112.336V11.4019C112.936 10.4779 113.866 10.0159 115.126 10.0159ZM126.741 15.0739V10.2499H128.685V19.2499H126.741V18.0979C126.141 19.0219 125.211 19.4839 123.951 19.4839C122.907 19.4839 122.067 19.1539 121.431 18.4939C120.807 17.8219 120.495 16.9159 120.495 15.7759V10.2499H122.439V15.5779C122.439 16.2499 122.619 16.7659 122.979 17.1259C123.339 17.4859 123.831 17.6659 124.455 17.6659C125.163 17.6659 125.721 17.4499 126.129 17.0179C126.537 16.5739 126.741 15.9259 126.741 15.0739ZM139.652 15.5779H132.488C132.632 16.2499 132.956 16.7719 133.46 17.1439C133.976 17.5159 134.612 17.7019 135.368 17.7019C136.388 17.7019 137.162 17.3299 137.69 16.5859L139.292 17.5219C138.416 18.8299 137.102 19.4839 135.35 19.4839C133.898 19.4839 132.716 19.0399 131.804 18.1519C130.904 17.2519 130.454 16.1179 130.454 14.7499C130.454 13.4179 130.898 12.2959 131.786 11.3839C132.662 10.4719 133.802 10.0159 135.206 10.0159C136.514 10.0159 137.594 10.4779 138.446 11.4019C139.298 12.3259 139.724 13.4479 139.724 14.7679C139.724 15.0079 139.7 15.2779 139.652 15.5779ZM132.47 13.9939H137.762C137.63 13.2859 137.33 12.7399 136.862 12.3559C136.406 11.9719 135.848 11.7799 135.188 11.7799C134.468 11.7799 133.868 11.9779 133.388 12.3739C132.908 12.7699 132.602 13.3099 132.47 13.9939ZM154.539 16.4599L156.303 10.2499H158.355L155.529 19.2499H153.621L151.749 13.1839L149.859 19.2499H147.951L145.125 10.2499H147.177L148.923 16.4599L150.813 10.2499H152.667L154.539 16.4599ZM161.622 8.53988C161.382 8.77988 161.094 8.89988 160.758 8.89988C160.422 8.89988 160.128 8.77988 159.876 8.53988C159.636 8.28788 159.516 7.99388 159.516 7.65788C159.516 7.32188 159.636 7.03388 159.876 6.79388C160.116 6.54188 160.41 6.41588 160.758 6.41588C161.106 6.41588 161.4 6.54188 161.64 6.79388C161.88 7.03388 162 7.32188 162 7.65788C162 7.99388 161.874 8.28788 161.622 8.53988ZM161.73 19.2499H159.786V10.2499H161.73V19.2499ZM169.01 10.2499V12.1219H166.778V16.4419C166.778 16.8139 166.862 17.0839 167.03 17.2519C167.198 17.4079 167.444 17.4979 167.768 17.5219C168.104 17.5339 168.518 17.5279 169.01 17.5039V19.2499C167.522 19.4299 166.454 19.3039 165.806 18.8719C165.158 18.4279 164.834 17.6179 164.834 16.4419V12.1219H163.178V10.2499H164.834V8.30588L166.778 7.72988V10.2499H169.01ZM175.507 10.0159C176.551 10.0159 177.385 10.3519 178.009 11.0239C178.645 11.6839 178.963 12.5839 178.963 13.7239V19.2499H177.019V13.9219C177.019 13.2499 176.839 12.7339 176.479 12.3739C176.119 12.0139 175.627 11.8339 175.003 11.8339C174.295 11.8339 173.737 12.0559 173.329 12.4999C172.921 12.9319 172.717 13.5739 172.717 14.4259V19.2499H170.773V6.64988H172.717V11.4019C173.317 10.4779 174.247 10.0159 175.507 10.0159ZM191.64 12.7339H197.94V13.5979C197.94 15.3259 197.37 16.7419 196.23 17.8459C195.102 18.9379 193.614 19.4839 191.766 19.4839C189.822 19.4839 188.214 18.8539 186.942 17.5939C185.682 16.3339 185.052 14.7859 185.052 12.9499C185.052 11.1259 185.682 9.58388 186.942 8.32388C188.214 7.05188 189.786 6.41588 191.658 6.41588C192.822 6.41588 193.89 6.68588 194.862 7.22588C195.846 7.75388 196.608 8.47988 197.148 9.40388L195.366 10.4299C195.03 9.81788 194.532 9.33188 193.872 8.97188C193.212 8.61188 192.474 8.43188 191.658 8.43188C190.338 8.43188 189.252 8.86388 188.4 9.72788C187.548 10.6039 187.122 11.6839 187.122 12.9679C187.122 14.2639 187.548 15.3379 188.4 16.1899C189.276 17.0419 190.404 17.4679 191.784 17.4679C192.888 17.4679 193.794 17.2099 194.502 16.6939C195.21 16.1779 195.66 15.4759 195.852 14.5879H191.64V12.7339ZM207.32 18.1159C206.408 19.0279 205.286 19.4839 203.954 19.4839C202.622 19.4839 201.5 19.0279 200.588 18.1159C199.664 17.1919 199.202 16.0699 199.202 14.7499C199.202 13.4299 199.664 12.3079 200.588 11.3839C201.5 10.4719 202.622 10.0159 203.954 10.0159C205.286 10.0159 206.408 10.4719 207.32 11.3839C208.244 12.3079 208.706 13.4299 208.706 14.7499C208.706 16.0699 208.244 17.1919 207.32 18.1159ZM201.146 14.7499C201.146 15.5659 201.416 16.2439 201.956 16.7839C202.496 17.3239 203.162 17.5939 203.954 17.5939C204.746 17.5939 205.412 17.3239 205.952 16.7839C206.492 16.2439 206.762 15.5659 206.762 14.7499C206.762 13.9339 206.492 13.2559 205.952 12.7159C205.412 12.1759 204.746 11.9059 203.954 11.9059C203.162 11.9059 202.496 12.1759 201.956 12.7159C201.416 13.2559 201.146 13.9339 201.146 14.7499ZM218.078 18.1159C217.166 19.0279 216.044 19.4839 214.712 19.4839C213.38 19.4839 212.258 19.0279 211.346 18.1159C210.422 17.1919 209.96 16.0699 209.96 14.7499C209.96 13.4299 210.422 12.3079 211.346 11.3839C212.258 10.4719 213.38 10.0159 214.712 10.0159C216.044 10.0159 217.166 10.4719 218.078 11.3839C219.002 12.3079 219.464 13.4299 219.464 14.7499C219.464 16.0699 219.002 17.1919 218.078 18.1159ZM211.904 14.7499C211.904 15.5659 212.174 16.2439 212.714 16.7839C213.254 17.3239 213.92 17.5939 214.712 17.5939C215.504 17.5939 216.17 17.3239 216.71 16.7839C217.25 16.2439 217.52 15.5659 217.52 14.7499C217.52 13.9339 217.25 13.2559 216.71 12.7159C216.17 12.1759 215.504 11.9059 214.712 11.9059C213.92 11.9059 213.254 12.1759 212.714 12.7159C212.174 13.2559 211.904 13.9339 211.904 14.7499ZM228.386 11.5819V10.2499H230.294V18.8359C230.294 20.2039 229.844 21.2539 228.944 21.9859C228.056 22.7179 226.964 23.0839 225.668 23.0839C223.592 23.0839 222.17 22.3579 221.402 20.9059L223.076 19.9339C223.544 20.8579 224.42 21.3199 225.704 21.3199C226.544 21.3199 227.198 21.0979 227.666 20.6539C228.146 20.2219 228.386 19.6159 228.386 18.8359V17.7379C227.654 18.7819 226.61 19.3039 225.254 19.3039C223.994 19.3039 222.92 18.8539 222.032 17.9539C221.156 17.0419 220.718 15.9439 220.718 14.6599C220.718 13.3639 221.156 12.2719 222.032 11.3839C222.908 10.4719 223.982 10.0159 225.254 10.0159C226.61 10.0159 227.654 10.5379 228.386 11.5819ZM223.472 16.6759C224.024 17.2159 224.708 17.4859 225.524 17.4859C226.34 17.4859 227.018 17.2159 227.558 16.6759C228.11 16.1359 228.386 15.4639 228.386 14.6599C228.386 13.8559 228.11 13.1839 227.558 12.6439C227.018 12.1039 226.34 11.8339 225.524 11.8339C224.708 11.8339 224.024 12.1039 223.472 12.6439C222.932 13.1839 222.662 13.8559 222.662 14.6599C222.662 15.4639 222.932 16.1359 223.472 16.6759ZM234.504 19.2499H232.56V6.10988H234.504V19.2499ZM245.455 15.5779H238.291C238.435 16.2499 238.759 16.7719 239.263 17.1439C239.779 17.5159 240.415 17.7019 241.171 17.7019C242.191 17.7019 242.965 17.3299 243.493 16.5859L245.095 17.5219C244.219 18.8299 242.905 19.4839 241.153 19.4839C239.701 19.4839 238.519 19.0399 237.607 18.1519C236.707 17.2519 236.257 16.1179 236.257 14.7499C236.257 13.4179 236.701 12.2959 237.589 11.3839C238.465 10.4719 239.605 10.0159 241.009 10.0159C242.317 10.0159 243.397 10.4779 244.249 11.4019C245.101 12.3259 245.527 13.4479 245.527 14.7679C245.527 15.0079 245.503 15.2779 245.455 15.5779ZM238.273 13.9939H243.565C243.433 13.2859 243.133 12.7399 242.665 12.3559C242.209 11.9719 241.651 11.7799 240.991 11.7799C240.271 11.7799 239.671 11.9779 239.191 12.3739C238.711 12.7699 238.405 13.3099 238.273 13.9939Z" fill="#FCFCFC"/>
<path d="M23.9288 12.5172C23.9288 11.5279 23.8506 10.8059 23.6815 10.0573H12.6865V14.5226H19.1403C19.0103 15.6323 18.3076 17.3035 16.7462 18.4264L16.7243 18.5759L20.2007 21.3431L20.4416 21.3678C22.6536 19.2687 23.9288 16.1804 23.9288 12.5172Z" fill="white"/>
<path d="M12.6865 24.2822C15.8484 24.2822 18.5028 23.2126 20.4416 21.3677L16.7462 18.4264C15.7573 19.135 14.4301 19.6296 12.6865 19.6296C9.58969 19.6296 6.9613 17.5307 6.02435 14.6295L5.88701 14.6415L2.27216 17.516L2.22488 17.651C4.15063 21.5816 8.10627 24.2822 12.6865 24.2822Z" fill="white"/>
<path d="M6.02435 14.6296C5.77713 13.8809 5.63405 13.0787 5.63405 12.2498C5.63405 11.4208 5.77713 10.6187 6.01134 9.87003L6.00479 9.71058L2.34464 6.78998L2.22488 6.8485C1.43119 8.47959 0.975769 10.3112 0.975769 12.2498C0.975769 14.1884 1.43119 16.0199 2.22488 17.651L6.02435 14.6296Z" fill="white"/>
<path d="M12.6869 4.86993C14.8859 4.86993 16.3692 5.84589 17.215 6.66148L20.52 3.34585C18.4902 1.40729 15.8487 0.217407 12.6869 0.217407C8.10663 0.217407 4.151 2.91801 2.22525 6.84858L6.01171 9.8701C6.96166 6.96895 9.59005 4.86993 12.6869 4.86993Z" fill="white"/>
</svg>
